{
  "accessors": [
    {
      "bufferView": 2,
      "componentType": 5126,
      "count": 373,
      "max": [
        0.027904054149985313,
        0.027370737865567207,
        0.07559478282928467
      ],
      "min": [
        -0.026737766340374947,
        -0.026747727766633034,
        0.0004726909101009369
      ],
      "type": "VEC3"
    },
    {
      "bufferView": 2,
      "byteOffset": 4476,
      "componentType": 5126,
      "count": 373,
      "max": [
        0.9932103157043457,
        0.9880678653717041,
        0.9832273125648499
      ],
      "min": [
        -0.9797565340995789,
        -0.9925999641418457,
        -0.997342586517334
      ],
      "type": "VEC3"
    },
    {
      "bufferView": 3,
      "componentType": 5126,
      "count": 373,
      "max": [
        0.9302579164505005,
        0.9022115468978882,
        0.8015961050987244,
        1.0
      ],
      "min": [
        -0.9843080043792725,
        -0.9982035160064697,
        -0.9562129378318787,
        1.0
      ],
      "type": "VEC4"
    },
    {
      "bufferView": 1,
      "componentType": 5126,
      "count": 373,
      "max": [
        0.9885134696960449,
        0.9889549612998962
      ],
      "min": [
        0.012972593307495117,
        0.01104503870010376
      ],
      "type": "VEC2"
    },
    {
      "bufferView": 1,
      "byteOffset": 2984,
      "componentType": 5126,
      "count": 373,
      "max": [
        0.9885134696960449,
        0.9889549612998962
      ],
      "min": [
        0.012972593307495117,
        0.01104503870010376
      ],
      "type": "VEC2"
    },
    {
      "bufferView": 1,
      "byteOffset": 5968,
      "componentType": 5126,
      "count": 373,
      "max": [
        0.9885134696960449,
        0.9889549612998962
      ],
      "min": [
        0.012972593307495117,
        0.01104503870010376
      ],
      "type": "VEC2"
    },
    {
      "bufferView": 0,
      "componentType": 5125,
      "count": 1980,
      "type": "SCALAR"
    }
  ],
  "asset": {
    "extras": {
      "author": "Meerschaum Digital (https://sketchfab.com/meerschaumdigital)",
      "license": "CC-BY-4.0 (http://creativecommons.org/licenses/by/4.0/)",
      "source": "https://sketchfab.com/3d-models/red-onion-game-ready-2k-pbr-963d2cf536db4128b23e6597bc78dd23",
      "title": "Red Onion (Game Ready / 2K PBR)"
    },
    "generator": "Sketchfab-11.62.0",
    "version": "2.0"
  },
  "bufferViews": [
    {
      "buffer": 0,
      "byteLength": 7920,
      "name": "floatBufferViews",
      "target": 34963
    },
    {
      "buffer": 0,
      "byteLength": 8952,
      "byteOffset": 7920,
      "byteStride": 8,
      "name": "floatBufferViews",
      "target": 34962
    },
    {
      "buffer": 0,
      "byteLength": 8952,
      "byteOffset": 16872,
      "byteStride": 12,
      "name": "floatBufferViews",
      "target": 34962
    },
    {
      "buffer": 0,
      "byteLength": 5968,
      "byteOffset": 25824,
      "byteStride": 16,
      "name": "floatBufferViews",
      "target": 34962
    }
  ],
  "buffers": [
    {
      "byteLength": 31792,
      "uri": "scene.bin"
    }
  ],
  "images": [
    {
      "uri": "textures/Red_Onion_PBR_baseColor.jpeg"
    },
    {
      "uri": "textures/Red_Onion_PBR_metallicRoughness.png"
    },
    {
      "uri": "textures/Red_Onion_PBR_normal.jpeg"
    }
  ],
  "materials": [
    {
      "doubleSided": true,
      "name": "Red_Onion_PBR",
      "normalTexture": {
        "index": 2
      },
      "occlusionTexture": {
        "index": 1
      },
      "pbrMetallicRoughness": {
        "baseColorTexture": {
          "index": 0
        },
        "metallicFactor": 0.0,
        "metallicRoughnessTexture": {
          "index": 1
        }
      }
    }
  ],
  "meshes": [
    {
      "name": "Red Onion_Red Onion PBR_0",
      "primitives": [
        {
          "attributes": {
            "NORMAL": 1,
            "POSITION": 0,
            "TANGENT": 2,
            "TEXCOORD_0": 3,
            "TEXCOORD_1": 4,
            "TEXCOORD_2": 5
          },
          "indices": 6,
          "material": 0,
          "mode": 4
        }
      ]
    }
  ],
  "nodes": [
    {
      "children": [
        1
      ],
      "matrix": [
        1.0,
        0.0,
        0.0,
        0.0,
        0.0,
        2.220446049250313e-16,
        -1.0,
        0.0,
        0.0,
        1.0,
        2.220446049250313e-16,
        0.0,
        0.0,
        0.0,
        0.0,
        1.0
      ],
      "name": "Sketchfab_model"
    },
    {
      "children": [
        2
      ],
      "matrix": [
        0.009999999776482582,
        0.0,
        0.0,
        0.0,
        0.0,
        0.0,
        0.009999999776482582,
        0.0,
        0.0,
        -0.009999999776482582,
        0.0,
        0.0,
        0.0,
        0.0,
        0.0,
        1.0
      ],
      "name": "ac8a02598f8e4849a0c2f4a8212853e9.fbx"
    },
    {
      "children": [
        3
      ],
      "name": "RootNode"
    },
    {
      "children": [
        4
      ],
      "matrix": [
        100.0,
        0.0,
        0.0,
        0.0,
        0.0,
        -1.629206793918314e-05,
        -99.99999999999868,
        0.0,
        0.0,
        99.99999999999868,
        -1.629206793918314e-05,
        0.0,
        0.0,
        0.0,
        0.0,
        1.0
      ],
      "name": "Red Onion"
    },
    {
      "mesh": 0,
      "name": "Red Onion_Red Onion PBR_0"
    }
  ],
  "samplers": [
    {
      "magFilter": 9729,
      "minFilter": 9987,
      "wrapS": 10497,
      "wrapT": 10497
    }
  ],
  "scene": 0,
  "scenes": [
    {
      "name": "Sketchfab_Scene",
      "nodes": [
        0
      ]
    }
  ],
  "textures": [
    {
      "sampler": 0,
      "source": 0
    },
    {
      "sampler": 0,
      "source": 1
    },
    {
      "sampler": 0,
      "source": 2
    }
  ]
}
